<svg xmlns="http://www.w3.org/2000/svg" width="345.175" height="54.427" viewBox="0 0 345.175 54.427">
  <g id="Group_5" data-name="Group 5" transform="translate(169.249 -388.128)">
    <rect id="Rectangle_1" data-name="Rectangle 1" width="11.997" height="54.427" transform="translate(-169.249 388.128)" fill="#fff"/>
    <path id="Path_1" data-name="Path 1" d="M-18.076,409.342H3.135v12H-18.076v21.209H-30.069V421.345H-51.162v-12h21.093V388.128h11.993v21.215" transform="translate(-42.529)" fill="#fff"/>
    <path id="Path_2" data-name="Path 2" d="M143.407,388.128v54.427h-12V388.128Zm24.492,0v54.427h-11.99V388.128Z" transform="translate(-108.283 0)" fill="#fff"/>
    <path id="Path_3" data-name="Path 3" d="M340.43,398.582l-18.308,18.435,18.308,18.306-7.948,8.084-18.443-18.437L295.6,443.408l-8.082-8.084,18.437-18.306-18.437-18.435L295.6,390.5l18.442,18.435L332.482,390.5l7.948,8.085" transform="translate(-164.504 -0.854)" fill="#fff"/>
    <path id="Path_4" data-name="Path 4" d="M-99.024,451.42V428.3c0-5.205-3.317-6.965-6.328-6.965s-6.381,1.76-6.381,6.965V451.42h-9.539V413.182h9.326v3.529a13.035,13.035,0,0,1,9.536-3.967,12.382,12.382,0,0,1,9.02,3.38C-90.3,419.2-89.5,422.8-89.5,426.984V451.42h-9.529" transform="translate(-17.279 -8.866)" fill="#fff"/>
    <path id="Path_5" data-name="Path 5" d="M63.552,434.585c0,4.919,3,8.518,8.362,8.518a10.584,10.584,0,0,0,8.66-3.6l5.8,5.65c-3.894,3.893-7.642,6.018-14.537,6.018-9.028,0-17.692-4.109-17.692-19.6,0-12.468,6.758-19.514,16.661-19.514,10.641,0,16.665,7.781,16.665,18.277v4.251H63.552M77.2,423.945a7.135,7.135,0,0,0-12.777,0,10.417,10.417,0,0,0-.867,4.106H78.068A10.59,10.59,0,0,0,77.2,423.945Z" transform="translate(-80.454 -8.618)" fill="#fff"/>
    <path id="Path_6" data-name="Path 6" d="M223.02,434.585c0,4.919,3.015,8.518,8.369,8.518a10.561,10.561,0,0,0,8.663-3.6l5.793,5.65c-3.884,3.893-7.628,6.018-14.53,6.018-9.029,0-17.694-4.109-17.694-19.6,0-12.468,6.759-19.514,16.671-19.514,10.637,0,16.658,7.781,16.658,18.277v4.251H223.02m13.652-10.64a7.126,7.126,0,0,0-12.766,0,10.616,10.616,0,0,0-.887,4.106h14.54A10.783,10.783,0,0,0,236.672,423.945Z" transform="translate(-137.891 -8.618)" fill="#fff"/>
  </g>
</svg>
