<svg id="Group_16" data-name="Group 16" xmlns="http://www.w3.org/2000/svg" width="22" height="22" viewBox="0 0 22 22">
  <g id="Group_15" data-name="Group 15">
    <g id="Ellipse_3" data-name="Ellipse 3" fill="none" stroke="#fff" stroke-width="1">
      <circle cx="11" cy="11" r="11" stroke="none"/>
      <circle cx="11" cy="11" r="10.5" fill="none"/>
    </g>
    <g id="_001-right-arrow" data-name="001-right-arrow" transform="translate(9.073 7.719)">
      <g id="Group_13" data-name="Group 13">
        <path id="Path_18" data-name="Path 18" d="M105.228,3.025,102.308.1a.36.36,0,0,0-.508,0l-.215.215a.359.359,0,0,0,0,.508l2.452,2.452-2.455,2.455a.36.36,0,0,0,0,.508l.215.215a.36.36,0,0,0,.508,0l2.923-2.923a.362.362,0,0,0,0-.509Z" transform="translate(-101.478 0)" fill="#fff"/>
      </g>
    </g>
  </g>
</svg>
