<svg xmlns="http://www.w3.org/2000/svg" width="108.5" height="126.271" viewBox="0 0 108.5 126.271">
  <g id="Group_515" data-name="Group 515" transform="translate(-46 -58.285)">
    <g id="Group_1" data-name="Group 1" transform="translate(55.528 170.819)">
      <path id="Path_1" data-name="Path 1" d="M461.481,566.556h8.659v2.1h-6.333v3.213h6v2.1h-6v3.545h6.665v2.1h-8.991Z" transform="translate(-461.481 -566.223)" fill="#212121"/>
      <path id="Path_2" data-name="Path 2" d="M506.513,568.893a3.894,3.894,0,0,0-1.394-1.034,3.764,3.764,0,0,0-1.357-.258,4.526,4.526,0,0,0-1.837.36,4.21,4.21,0,0,0-1.413,1,4.523,4.523,0,0,0-.914,1.486,5.094,5.094,0,0,0-.323,1.828,5.614,5.614,0,0,0,.323,1.938,4.545,4.545,0,0,0,.914,1.533,4.251,4.251,0,0,0,1.413,1.015,4.43,4.43,0,0,0,1.837.37,3.373,3.373,0,0,0,1.542-.379,4.206,4.206,0,0,0,1.394-1.209l1.92,1.366a5.232,5.232,0,0,1-2.16,1.772,6.732,6.732,0,0,1-2.714.554,7.649,7.649,0,0,1-2.779-.49,6.227,6.227,0,0,1-3.609-3.536,7.252,7.252,0,0,1-.517-2.788,7.571,7.571,0,0,1,.517-2.852,6.4,6.4,0,0,1,1.431-2.188,6.283,6.283,0,0,1,2.178-1.394,7.641,7.641,0,0,1,2.779-.489,6.374,6.374,0,0,1,2.465.471,5.749,5.749,0,0,1,2.114,1.6Z" transform="translate(-485.759 -565.495)" fill="#212121"/>
      <path id="Path_3" data-name="Path 3" d="M538.211,572.418a7.565,7.565,0,0,1,.517-2.852,6.391,6.391,0,0,1,1.431-2.188,6.277,6.277,0,0,1,2.178-1.394,7.639,7.639,0,0,1,2.779-.489,7.761,7.761,0,0,1,2.806.452,6.141,6.141,0,0,1,2.2,1.375,6.359,6.359,0,0,1,1.44,2.179,7.5,7.5,0,0,1,.517,2.843,7.258,7.258,0,0,1-.517,2.788,6.394,6.394,0,0,1-1.44,2.16,6.567,6.567,0,0,1-2.2,1.412,7.772,7.772,0,0,1-2.806.527,7.648,7.648,0,0,1-2.779-.489,6.229,6.229,0,0,1-3.609-3.536A7.247,7.247,0,0,1,538.211,572.418Zm2.437-.148a5.623,5.623,0,0,0,.323,1.938,4.549,4.549,0,0,0,.914,1.533,4.246,4.246,0,0,0,1.412,1.015,4.431,4.431,0,0,0,1.837.37,4.5,4.5,0,0,0,1.847-.37,4.224,4.224,0,0,0,1.421-1.015,4.547,4.547,0,0,0,.914-1.533,5.625,5.625,0,0,0,.323-1.938,5.105,5.105,0,0,0-.323-1.828,4.525,4.525,0,0,0-.914-1.486,4.183,4.183,0,0,0-1.421-1,4.6,4.6,0,0,0-1.847-.36,4.527,4.527,0,0,0-1.837.36,4.2,4.2,0,0,0-1.412,1,4.527,4.527,0,0,0-.914,1.486A5.1,5.1,0,0,0,540.648,572.27Z" transform="translate(-514.168 -565.494)" fill="#212121"/>
      <path id="Path_4" data-name="Path 4" d="M599.056,568.893a3.89,3.89,0,0,0-1.394-1.034,3.767,3.767,0,0,0-1.357-.258,4.529,4.529,0,0,0-1.837.36,4.209,4.209,0,0,0-1.412,1,4.528,4.528,0,0,0-.914,1.486,5.1,5.1,0,0,0-.323,1.828,5.619,5.619,0,0,0,.323,1.938,4.55,4.55,0,0,0,.914,1.533,4.25,4.25,0,0,0,1.412,1.015,4.432,4.432,0,0,0,1.837.37,3.371,3.371,0,0,0,1.542-.379,4.2,4.2,0,0,0,1.394-1.209l1.92,1.366a5.231,5.231,0,0,1-2.16,1.772,6.731,6.731,0,0,1-2.714.554,7.65,7.65,0,0,1-2.779-.49,6.229,6.229,0,0,1-3.609-3.536,7.246,7.246,0,0,1-.517-2.788,7.564,7.564,0,0,1,.517-2.852,6.4,6.4,0,0,1,1.431-2.188,6.278,6.278,0,0,1,2.178-1.394,7.643,7.643,0,0,1,2.779-.489,6.375,6.375,0,0,1,2.465.471,5.752,5.752,0,0,1,2.114,1.6Z" transform="translate(-549.304 -565.495)" fill="#212121"/>
      <path id="Path_5" data-name="Path 5" d="M643.914,574.827a5.368,5.368,0,0,1-.406,2.132,4.779,4.779,0,0,1-1.108,1.616,4.866,4.866,0,0,1-1.662,1.024,6.217,6.217,0,0,1-4.172,0,4.963,4.963,0,0,1-1.671-1.024,4.6,4.6,0,0,1-1.108-1.616,5.474,5.474,0,0,1-.4-2.132v-8.271h2.326v8.2a3.714,3.714,0,0,0,.148,1.006,2.823,2.823,0,0,0,.489.969,2.611,2.611,0,0,0,.9.729,3.539,3.539,0,0,0,2.788,0,2.612,2.612,0,0,0,.9-.729,2.832,2.832,0,0,0,.49-.969,3.733,3.733,0,0,0,.148-1.006v-8.2h2.326Z" transform="translate(-579.522 -566.223)" fill="#212121"/>
      <path id="Path_6" data-name="Path 6" d="M678.221,566.556h5.1a6.152,6.152,0,0,1,1.458.175,3.754,3.754,0,0,1,1.283.572,2.955,2.955,0,0,1,1.265,2.539,2.68,2.68,0,0,1-.628,1.828,3.49,3.49,0,0,1-1.643,1.034v.037a3.38,3.38,0,0,1,1.135.341,3.011,3.011,0,0,1,.9.683,3.161,3.161,0,0,1,.581.96,3.2,3.2,0,0,1,.213,1.172,3.424,3.424,0,0,1-.425,1.781,3.366,3.366,0,0,1-1.117,1.145,4.775,4.775,0,0,1-1.588.619,8.981,8.981,0,0,1-1.818.185h-4.708Zm2.326,5.317h2.123a2.811,2.811,0,0,0,1.745-.452,1.571,1.571,0,0,0-.018-2.456,3.466,3.466,0,0,0-1.929-.415h-1.92Zm0,5.76h2.142a8.793,8.793,0,0,0,.951-.055,2.857,2.857,0,0,0,.932-.259,1.837,1.837,0,0,0,.7-.581,1.7,1.7,0,0,0,.277-1.025,1.542,1.542,0,0,0-.674-1.44,4.184,4.184,0,0,0-2.1-.406h-2.234Z" transform="translate(-610.305 -566.223)" fill="#212121"/>
      <path id="Path_7" data-name="Path 7" d="M718.469,566.556h8.659v2.1H720.8v3.213h6v2.1h-6v3.545h6.665v2.1h-8.991Z" transform="translate(-637.941 -566.223)" fill="#212121"/>
    </g>
    <g id="Group_2" data-name="Group 2" transform="translate(46 58.285)">
      <path id="Path_8" data-name="Path 8" d="M462.2,238.314h62.7v-5.2H457v67.9H462.2Z" transform="translate(-448.878 -224.735)" fill="#77c7bf"/>
      <path id="Path_9" data-name="Path 9" d="M597.458,373.573h-62.7v5.2h67.9v-67.9h-5.194Z" transform="translate(-502.266 -278.124)" fill="#77c7bf"/>
      <path id="Path_10" data-name="Path 10" d="M724.876,214.83v-8.465H720.92v8.465h-8.135v3.823h8.135v8.531h3.955v-8.531h8.135V214.83Z" transform="translate(-624.51 -206.365)" fill="#77c7bf"/>
      <rect id="Rectangle_1" data-name="Rectangle 1" width="20.225" height="3.823" transform="translate(0 89.18)" fill="#77c7bf"/>
      <path id="Path_11" data-name="Path 11" d="M541.88,372.415q.759.377,1.546.719h0a31.958,31.958,0,0,0,42.666-40.417,26.832,26.832,0,0,1-37.3,28.077l1.307-3.019a23.558,23.558,0,0,0,31.26-30.293c-.052-.13-.11-.257-.164-.385a18.435,18.435,0,0,1-25.73,18.278l-.023-.009a15.155,15.155,0,0,0-13.562,27.05Z" transform="translate(-501.946 -289.265)" fill="#77c7bf"/>
      <path id="Path_12" data-name="Path 12" d="M534.553,308.925l.022.009a15.157,15.157,0,1,0,12.039-27.821l.021-.051-.021-.01h0a31.944,31.944,0,0,0-42.671,40.364A26.841,26.841,0,0,1,541.226,293.5l.022.009-1.307,3.019-.023-.009a23.541,23.541,0,0,0-31.061,30.69,18.435,18.435,0,0,1,25.695-18.289Z" transform="translate(-479.75 -255.844)" fill="#77c7bf"/>
    </g>
  </g>
</svg>
